<svg xmlns="http://www.w3.org/2000/svg" viewBox="0 0 64 64" fill="currentColor">
  <rect x="8" y="8" width="48" height="48" rx="4" fill="#333333"/>
  <path d="M 32 14 C 22 14 14 22 14 32 C 14 40 19 47 26 49.5 C 27 49.7 27.5 49.2 27.5 48.8 L 27.5 46.5 C 22 47.5 21 44 21 44 C 20 42 19 41.5 19 41.5 C 17 40 19 40 19 40 C 21 40.1 22 42 22 42 C 24 45 27 44 27.5 43.8 C 27.7 42.5 28 41.8 28.5 41.3 C 24 40.8 20 39 20 33 C 20 31 21 29 23 27.5 C 22.8 27 22 24.5 23 22 C 23 22 25 21 27.5 22.5 C 29 22 31 21.5 32 21.5 C 33 21.5 35 22 36.5 22.5 C 39 21 41 22 41 22 C 42 24.5 41.2 27 41 27.5 C 43 29 44 31 44 33 C 44 39 40 40.8 36 41.3 C 36.5 41.8 37 42.5 37 43.8 C 37 44.2 37 46.5 37 48.8 C 37 49.2 37.5 49.7 38.5 49.5 C 45 47 50 40 50 32 C 50 22 42 14 32 14 Z" fill="#FFFFFF"/>
</svg>
