<svg xmlns="http://www.w3.org/2000/svg" viewBox="0 0 280 280" fill="none">
  <style>
    .cloud-icon { fill: #0f172a; stroke: #0f172a; }
    @media (prefers-color-scheme: dark) {
      .cloud-icon { fill: #f8fafc; stroke: #f8fafc; }
    }
  </style>
  <path
    class="cloud-icon"
    d="M76 200 H204 C230 200 250 180 250 154 C250 130 232 110 208 108 C204 76 176 50 142 50 C110 50 84 73 78 103 C52 107 32 128 32 154 C32 180 52 200 76 200 Z"
    stroke-width="16"
    stroke-linecap="round"
    stroke-linejoin="round"
    fill="none"
  />
  <path
    class="cloud-icon"
    stroke="none"
    d="M140 76 L180 124 H154 V164 H126 V124 H100 Z"
  />
  <path
    class="cloud-icon"
    stroke="none"
    d="M96 142 H112 V172 H168 V142 H184 V180 C184 184 180 188 176 188 H104 C100 188 96 184 96 180 Z"
  />
</svg>
